<svg id="Logo" xmlns="http://www.w3.org/2000/svg" xmlns:xlink="http://www.w3.org/1999/xlink" viewBox="0 0 400 489.17"><defs><style>.cls-1{fill:url(#Dégradé_sans_nom_11);}</style><radialGradient id="Dégradé_sans_nom_11" cx="200" cy="4.92" r="241.83" gradientUnits="userSpaceOnUse"><stop offset="0.25" stop-color="#36f"/><stop offset="0.7" stop-color="#003"/><stop offset="0.9"/></radialGradient></defs><title>Logo_VEvent</title><g id="LOGO-2" data-name="LOGO"><polygon id="ColorsLogo" class="cls-1" points="375 175 375 175 200 0 50 150 75 175 200 50 262.5 112.5 200 175 200 225 287.5 137.5 350 200 200 350 25 175 0 200 175 375 200 400 225 375 375 225 400 200 375 175"/><path d="M113.28,499.37V496H130.6v3.35Z" transform="translate(-35.36 -35.36)"/><polygon points="34.63 477.3 8.66 435.7 0 435.7 30.3 484.23 33.27 488.97 36 488.97 38.96 484.23 38.96 484.23 34.63 477.3 34.63 477.3"/><polygon points="64.94 435.7 38.96 477.3 41.13 480.77 64.94 442.63 69.27 435.7 64.94 435.7"/><polygon points="190.48 477.3 164.51 435.7 155.85 435.7 186.16 484.23 189.12 488.97 191.85 488.97 194.81 484.23 194.81 484.23 190.48 477.3 190.48 477.3"/><polygon points="220.79 435.7 194.81 477.3 196.97 480.77 220.79 442.63 225.12 435.7 220.79 435.7"/><rect x="103.9" y="485.81" width="36.89" height="3.35"/><rect x="107.25" y="435.5" width="33.54" height="3.35"/><polygon points="140.79 435.5 140.79 442.21 140.79 460.66 126.26 460.66 124.03 464.01 140.79 464.01 140.79 485.81 140.79 489.17 147.5 489.17 147.5 482.46 147.5 435.5 140.79 435.5"/><rect x="240.48" y="485.81" width="36.89" height="3.35"/><rect x="240.48" y="435.5" width="33.54" height="3.35"/><polygon points="240.48 435.5 240.48 442.21 240.48 460.66 255.02 460.66 257.25 464.01 240.48 464.01 240.48 485.81 240.48 489.17 233.78 489.17 233.78 482.46 233.78 435.5 240.48 435.5"/><polygon points="400 435.36 346.33 435.36 346.33 438.71 369.81 438.71 369.81 489.02 376.52 489.02 376.52 438.71 400 438.71 400 435.36"/><polygon points="285.73 435.36 285.73 440.1 285.73 489.02 288.97 489.02 288.97 443.45 333.07 489.02 334.43 489.02 337.68 489.02 337.68 484.29 337.68 435.36 334.43 435.36 334.43 480.94 290.32 435.36 285.73 435.36"/></g></svg>