<svg xmlns="http://www.w3.org/2000/svg" xmlns:xlink="http://www.w3.org/1999/xlink" viewBox="0 0 300 300"><defs><style>.cls-1{fill:url(#Dégradé_sans_nom_59);}.cls-2{fill:#24122e;}.cls-3{fill:url(#Dégradé_sans_nom_33);}.cls-4{fill:url(#Dégradé_sans_nom_33-2);}.cls-5{fill:url(#Dégradé_sans_nom_33-3);}</style><radialGradient id="Dégradé_sans_nom_59" cx="111.96" cy="134.11" r="149.77" gradientTransform="translate(165.89 -23.77) rotate(45)" gradientUnits="userSpaceOnUse"><stop offset="0.11" stop-color="#f1c63c"/><stop offset="0.52" stop-color="#cf334b"/><stop offset="0.79" stop-color="#7b2554"/><stop offset="1" stop-color="#492a6d"/></radialGradient><linearGradient id="Dégradé_sans_nom_33" x1="100.04" y1="-0.67" x2="100.04" y2="299.95" gradientUnits="userSpaceOnUse"><stop offset="0" stop-color="#303"/><stop offset="0.08" stop-color="#643d64"/><stop offset="0.16" stop-color="#927792"/><stop offset="0.24" stop-color="#b9a8b9"/><stop offset="0.32" stop-color="#d7ced7"/><stop offset="0.39" stop-color="#ede9ed"/><stop offset="0.45" stop-color="#faf9fa"/><stop offset="0.5" stop-color="#fff"/><stop offset="0.55" stop-color="#faf9fa"/><stop offset="0.61" stop-color="#ede9ed"/><stop offset="0.68" stop-color="#d7ced7"/><stop offset="0.76" stop-color="#b9a8b9"/><stop offset="0.84" stop-color="#927792"/><stop offset="0.92" stop-color="#643d64"/><stop offset="1" stop-color="#303"/></linearGradient><linearGradient id="Dégradé_sans_nom_33-2" x1="114.7" y1="-0.67" x2="114.7" y2="299.95" xlink:href="#Dégradé_sans_nom_33"/><linearGradient id="Dégradé_sans_nom_33-3" x1="176.7" y1="-0.67" x2="176.7" y2="299.95" xlink:href="#Dégradé_sans_nom_33"/></defs><title>Logo_FastActions</title><g id="Décors"><g id="Fond"><circle class="cls-1" cx="150.23" cy="150.23" r="149.77"/></g><path class="cls-2" d="M237.88,62.9s11.37,71.24-47.16,84.2c-1.35,13,3.1,29.68-33.53,47.24,0-19.09,1-28.13,1-28.13s-22-3.92-53.28,48.81c0,0-19.49,80,42.49,83.12,0,0,59.31,5.1,107.69-43.29s66.24-142.94,0-209.18S94.3-2.71,45.92,45.67,2.63,153.36,2.63,153.36c3.14,62,83.13,42.49,83.13,42.49,52.72-31.28,48.81-53.28,48.81-53.28s-9,1-28.13,1C124,107,140.72,111.4,153.67,110.06c13-58.54,84.21-47.17,84.21-47.17Z"/></g><g id="Texte"><g id="F"><polygon class="cls-3" points="108.12 138.72 102.55 138.72 72.33 138.72 72.85 229.78 102.34 229.78 102.55 162.63 121.45 162.63 127.75 138.72 108.12 138.72"/><polygon class="cls-4" points="114.25 104.57 143.05 104.57 157.46 70.64 71.95 70.64 72.14 104.57 102.55 104.57 114.25 104.57"/></g><g id="A"><polygon class="cls-5" points="179.06 70.64 168.4 101.92 200.6 101.92 200.66 135.17 185.36 135.17 157.07 135.17 124.83 229.78 153.81 229.78 174.39 162.19 197.79 161.28 197.9 229.68 228.56 229.68 228.56 70.64 179.06 70.64"/></g></g></svg>